# xmcd CD database file
# Copyright (C) 1993-1997  Ti Kan
#
# Track frame offsets:
#	150
#	18455
#	31470
#	47842
#	59672
#	73880
#	86165
#	103240
#	116757
#	131482
#	146877
#	162507
#	183462
#	195795
#
# Disc length: 2749 seconds
#
# Revision: 1
# Processed by: cddbd v1.4b41PL1 Copyright (c) Steve Scherf et al.
# Submitted via: xmcd 2.1 PL2
#
DISCID=d60abb0e
DTITLE=Rusty Zinn - Sittin' and Waitin'
DYEAR=1900
DGENRE=
TTITLE0=Don't Let Daddy Slow Walk You Down
TTITLE1=Sittin' And Waitin'
TTITLE2=Stand By Me
TTITLE3=30 Second Lover
TTITLE4=Moanin' For My Baby
TTITLE5=Bad Boy
TTITLE6=Nothing Takes The Place Of You
TTITLE7=Pretty Thing
TTITLE8=It Hurts Me
TTITLE9=Crazy Little Woman
TTITLE10=It's Love, Baby, 24 Hours Of The Day
TTITLE11=Treat You Like A Queen
TTITLE12=Jr. Jives
TTITLE13=The Last Time
EXTD=
EXTT0=
EXTT1=
EXTT2=
EXTT3=
EXTT4=
EXTT5=
EXTT6=
EXTT7=
EXTT8=
EXTT9=
EXTT10=
EXTT11=
EXTT12=
EXTT13=
PLAYORDER=
